<svg id="visual" viewBox="0 25 800 80" xmlns="http://www.w3.org/2000/svg" xmlns:xlink="http://www.w3.org/1999/xlink" version="1.1"><path d="M0 79L75 69L150 67L225 75L300 84L375 84L450 77L525 63L600 62L675 67L750 74L825 78L900 55L900 0L825 0L750 0L675 0L600 0L525 0L450 0L375 0L300 0L225 0L150 0L75 0L0 0Z" fill="#4facf7"></path><path d="M0 46L75 33L150 31L225 33L300 40L375 39L450 41L525 32L600 36L675 33L750 32L825 44L900 30L900 0L825 0L750 0L675 0L600 0L525 0L450 0L375 0L300 0L225 0L150 0L75 0L0 0Z" fill="#04445f"></path></svg>