<svg id="visual" viewBox="0 500 900 600" xmlns="http://www.w3.org/2000/svg" xmlns:xlink="http://www.w3.org/1999/xlink" version="1.1"><path d="M0 517L25 517C50 517 100 517 150 516.7C200 516.3 250 515.7 300 513.8C350 512 400 509 450 509C500 509 550 512 600 510.2C650 508.3 700 501.7 750 496.5C800 491.3 850 487.7 875 485.8L900 484L900 601L875 601C850 601 800 601 750 601C700 601 650 601 600 601C550 601 500 601 450 601C400 601 350 601 300 601C250 601 200 601 150 601C100 601 50 601 25 601L0 601Z" fill="#206c8f"></path><path d="M0 510L25 508.3C50 506.7 100 503.3 150 507.7C200 512 250 524 300 526.3C350 528.7 400 521.3 450 518.8C500 516.3 550 518.7 600 521.3C650 524 700 527 750 528.7C800 530.3 850 530.7 875 530.8L900 531L900 601L875 601C850 601 800 601 750 601C700 601 650 601 600 601C550 601 500 601 450 601C400 601 350 601 300 601C250 601 200 601 150 601C100 601 50 601 25 601L0 601Z" fill="#04445f"></path><path d="M0 562L25 557.3C50 552.7 100 543.3 150 541.2C200 539 250 544 300 549.2C350 554.3 400 559.7 450 560.7C500 561.7 550 558.3 600 554.8C650 551.3 700 547.7 750 546.5C800 545.3 850 546.7 875 547.3L900 548L900 601L875 601C850 601 800 601 750 601C700 601 650 601 600 601C550 601 500 601 450 601C400 601 350 601 300 601C250 601 200 601 150 601C100 601 50 601 25 601L0 601Z" fill="#073246"></path></svg>