<svg id="visual" viewBox="0 0 900 600" xmlns="http://www.w3.org/2000/svg" xmlns:xlink="http://www.w3.org/1999/xlink" version="1.1"><path d="M0 79L21.5 77.5C43 76 86 73 128.8 73.8C171.7 74.7 214.3 79.3 257.2 80.5C300 81.7 343 79.3 385.8 77C428.7 74.7 471.3 72.3 514.2 74.2C557 76 600 82 642.8 85.5C685.7 89 728.3 90 771.2 88.5C814 87 857 83 878.5 81L900 79L900 0L878.5 0C857 0 814 0 771.2 0C728.3 0 685.7 0 642.8 0C600 0 557 0 514.2 0C471.3 0 428.7 0 385.8 0C343 0 300 0 257.2 0C214.3 0 171.7 0 128.8 0C86 0 43 0 21.5 0L0 0Z" fill="#206c8f"></path><path d="M0 47L21.5 49.7C43 52.3 86 57.7 128.8 61.5C171.7 65.3 214.3 67.7 257.2 66.8C300 66 343 62 385.8 61.3C428.7 60.7 471.3 63.3 514.2 66.2C557 69 600 72 642.8 73.2C685.7 74.3 728.3 73.7 771.2 70.8C814 68 857 63 878.5 60.5L900 58L900 0L878.5 0C857 0 814 0 771.2 0C728.3 0 685.7 0 642.8 0C600 0 557 0 514.2 0C471.3 0 428.7 0 385.8 0C343 0 300 0 257.2 0C214.3 0 171.7 0 128.8 0C86 0 43 0 21.5 0L0 0Z" fill="#0e516f"></path><path d="M0 54L21.5 51.3C43 48.7 86 43.3 128.8 43.5C171.7 43.7 214.3 49.3 257.2 47.3C300 45.3 343 35.7 385.8 32.8C428.7 30 471.3 34 514.2 34.8C557 35.7 600 33.3 642.8 32.2C685.7 31 728.3 31 771.2 33.5C814 36 857 41 878.5 43.5L900 46L900 0L878.5 0C857 0 814 0 771.2 0C728.3 0 685.7 0 642.8 0C600 0 557 0 514.2 0C471.3 0 428.7 0 385.8 0C343 0 300 0 257.2 0C214.3 0 171.7 0 128.8 0C86 0 43 0 21.5 0L0 0Z" fill="#053e57"></path><path d="M0 31L21.5 29.5C43 28 86 25 128.8 22.3C171.7 19.7 214.3 17.3 257.2 19.5C300 21.7 343 28.3 385.8 28.7C428.7 29 471.3 23 514.2 21.7C557 20.3 600 23.7 642.8 26.5C685.7 29.3 728.3 31.7 771.2 32.8C814 34 857 34 878.5 34L900 34L900 0L878.5 0C857 0 814 0 771.2 0C728.3 0 685.7 0 642.8 0C600 0 557 0 514.2 0C471.3 0 428.7 0 385.8 0C343 0 300 0 257.2 0C214.3 0 171.7 0 128.8 0C86 0 43 0 21.5 0L0 0Z" fill="#073246"></path></svg>