<svg id="visual" viewBox="0 0 900 600" width="900" height="600" xmlns="http://www.w3.org/2000/svg" xmlns:xlink="http://www.w3.org/1999/xlink" version="1.1"><path d="M0 333L10 334.2C20 335.3 40 337.7 60 337.7C80 337.7 100 335.3 120 336.5C140 337.7 160 342.3 180 345.5C200 348.7 220 350.3 240 352.5C260 354.7 280 357.3 300 358.7C320 360 340 360 360 361.5C380 363 400 366 420 365.3C440 364.7 460 360.3 480 357.7C500 355 520 354 540 353.8C560 353.7 580 354.3 600 357.2C620 360 640 365 660 362.7C680 360.3 700 350.7 720 350.8C740 351 760 361 780 359.8C800 358.7 820 346.3 840 342.8C860 339.3 880 344.7 890 347.3L900 350L900 0L890 0C880 0 860 0 840 0C820 0 800 0 780 0C760 0 740 0 720 0C700 0 680 0 660 0C640 0 620 0 600 0C580 0 560 0 540 0C520 0 500 0 480 0C460 0 440 0 420 0C400 0 380 0 360 0C340 0 320 0 300 0C280 0 260 0 240 0C220 0 200 0 180 0C160 0 140 0 120 0C100 0 80 0 60 0C40 0 20 0 10 0L0 0Z" fill="#04445f"></path><path d="M0 215L10 209C20 203 40 191 60 190.5C80 190 100 201 120 205.8C140 210.7 160 209.3 180 206.5C200 203.7 220 199.3 240 197.8C260 196.3 280 197.7 300 200.8C320 204 340 209 360 209.3C380 209.7 400 205.3 420 206C440 206.7 460 212.3 480 211.8C500 211.3 520 204.7 540 203.7C560 202.7 580 207.3 600 207.3C620 207.3 640 202.7 660 201.8C680 201 700 204 720 204.3C740 204.7 760 202.3 780 203.7C800 205 820 210 840 208.2C860 206.3 880 197.7 890 193.3L900 189L900 0L890 0C880 0 860 0 840 0C820 0 800 0 780 0C760 0 740 0 720 0C700 0 680 0 660 0C640 0 620 0 600 0C580 0 560 0 540 0C520 0 500 0 480 0C460 0 440 0 420 0C400 0 380 0 360 0C340 0 320 0 300 0C280 0 260 0 240 0C220 0 200 0 180 0C160 0 140 0 120 0C100 0 80 0 60 0C40 0 20 0 10 0L0 0Z" fill="#4a8fad"></path></svg>